<svg xmlns="http://www.w3.org/2000/svg" xmlns:xlink="http://www.w3.org/1999/xlink" width="529.417" height="562.322" viewBox="0 0 529.417 562.322">
  <defs>
    <linearGradient id="linear-gradient" y1="0.5" x2="1" y2="0.5" gradientUnits="objectBoundingBox">
      <stop offset="0" stop-color="#424244"/>
      <stop offset="1" stop-color="#0f0e0f"/>
    </linearGradient>
    <linearGradient id="linear-gradient-2" y1="0.5" x2="1" y2="0.5" gradientUnits="objectBoundingBox">
      <stop offset="0" stop-color="#424244"/>
      <stop offset="1" stop-color="#2d2c2d"/>
    </linearGradient>
    <linearGradient id="linear-gradient-3" y1="0.5" x2="1" y2="0.5" gradientUnits="objectBoundingBox">
      <stop offset="0.226" stop-color="#77797c"/>
      <stop offset="1" stop-color="#4c4d4f"/>
    </linearGradient>
    <linearGradient id="linear-gradient-5" x1="0.735" y1="0.116" x2="0.069" y2="0.773" gradientUnits="objectBoundingBox">
      <stop offset="0" stop-color="#a06c2b"/>
      <stop offset="1" stop-color="#503616"/>
    </linearGradient>
  </defs>
  <g id="Group_210" data-name="Group 210" transform="translate(-417 -3971)">
    <path id="Path_790" data-name="Path 790" d="M-6.971,8.372,178.551-92.242,318.417-11.952,240.384,37.156l-102.06,65.166Z" transform="translate(598 4401)" fill="#0c0c0c"/>
    <ellipse id="Ellipse_4" data-name="Ellipse 4" cx="32.234" cy="19.414" rx="32.234" ry="19.414" transform="translate(469.363 4325.463)" fill="#0d0d0d" opacity="0.52"/>
    <g id="Group_199" data-name="Group 199" transform="translate(568.221 4042.187)">
      <path id="Path_713" data-name="Path 713" d="M-1139.109,280.508l-110.317-66.267c-4.829-2.9-9.776-3.156-14.079-1.231v0l-10.489,3.811h8a30.235,30.235,0,0,0-3.523,9.15l-58.328,267.542c-3.305,15.157,2.874,32.767,13.8,39.33l110.315,66.269a18.232,18.232,0,0,0,3.523,1.64l-4.354,6.644,9.244-3.219h-.01c5.435-2.43,9.845-8.334,11.688-16.793l58.33-267.541C-1122.005,304.681-1128.183,287.071-1139.109,280.508Z" transform="translate(1344.198 -211.772)" fill="url(#linear-gradient)"/>
      <path id="Path_714" data-name="Path 714" d="M-1213.552,605.149l-110.317-66.267c-10.927-6.563-17.1-24.173-13.8-39.332l58.33-267.541c3.3-15.159,14.841-22.125,25.768-15.562l110.317,66.267c10.926,6.565,17.1,24.173,13.8,39.332l-58.33,267.541C-1191.088,604.746-1202.626,611.714-1213.552,605.149Z" transform="translate(1338.56 -210.506)" fill="url(#linear-gradient-2)"/>
      <path id="Path_715" data-name="Path 715" d="M-1215.563,594.55l-107.726-64.714c-8.5-5.1-13.3-18.795-10.731-30.581l58.009-266.068c2.569-11.786,11.539-17.2,20.035-12.1l107.726,64.712c8.5,5.1,13.3,18.795,10.731,30.581l-58.009,266.068C-1198.1,594.235-1207.067,599.653-1215.563,594.55Z" transform="translate(1340.768 -207.527)" fill="url(#linear-gradient-3)"/>
    </g>
    <g id="Ellipse_5" data-name="Ellipse 5" transform="translate(567 4121)" fill="#e18200" stroke="#707070" stroke-width="1">
      <ellipse cx="73.5" cy="81.5" rx="73.5" ry="81.5" stroke="none"/>
      <ellipse cx="73.5" cy="81.5" rx="73" ry="81" fill="none"/>
    </g>
    <g id="Group_200" data-name="Group 200" transform="translate(617.679 4081.988)">
      <path id="Path_716" data-name="Path 716" d="M-1259.632,260.064l-12.29-7.1a3.515,3.515,0,0,1-1.5-3.639h0a1.709,1.709,0,0,1,2.63-1.254l12.29,7.1a3.513,3.513,0,0,1,1.5,3.639h0A1.711,1.711,0,0,1-1259.632,260.064Z" transform="translate(1326.446 -230.896)" fill="#c9e6f8"/>
      <path id="Path_717" data-name="Path 717" d="M-1238.9,272.03l-18.123-10.462a3.517,3.517,0,0,1-1.5-3.639h0a1.711,1.711,0,0,1,2.63-1.256l18.123,10.462a3.516,3.516,0,0,1,1.5,3.641h0A1.71,1.71,0,0,1-1238.9,272.03Z" transform="translate(1334.995 -225.96)" fill="#c9e6f8"/>
      <path id="Path_718" data-name="Path 718" d="M-1273.242,296.511l-12.29-7.1a3.516,3.516,0,0,1-1.5-3.639h0a1.711,1.711,0,0,1,2.63-1.256l12.29,7.1a3.516,3.516,0,0,1,1.5,3.641h0A1.71,1.71,0,0,1-1273.242,296.511Z" transform="translate(1318.634 -209.976)" fill="#c9e6f8"/>
      <path id="Path_719" data-name="Path 719" d="M-1254.536,307.312l-18.121-10.464a3.513,3.513,0,0,1-1.5-3.639h0a1.711,1.711,0,0,1,2.63-1.256l18.121,10.464a3.513,3.513,0,0,1,1.5,3.639h0A1.711,1.711,0,0,1-1254.536,307.312Z" transform="translate(1326.024 -205.709)" fill="#c9e6f8"/>
      <path id="Path_720" data-name="Path 720" d="M-1284.348,253.178l-7.676-4.432a3.514,3.514,0,0,1-1.5-3.639h0a1.71,1.71,0,0,1,2.628-1.256l7.678,4.432a3.514,3.514,0,0,1,1.5,3.639h0A1.711,1.711,0,0,1-1284.348,253.178Z" transform="translate(1314.907 -233.319)" fill="#c9e6f8"/>
      <path id="Path_721" data-name="Path 721" d="M-1263.559,272.564l-23.458-13.544a3.515,3.515,0,0,1-1.5-3.639h0a1.711,1.711,0,0,1,2.63-1.256l23.457,13.544a3.514,3.514,0,0,1,1.5,3.639h0A1.71,1.71,0,0,1-1263.559,272.564Z" transform="translate(1317.781 -227.422)" fill="#c9e6f8"/>
      <path id="Path_722" data-name="Path 722" d="M-1282.348,276.485l-7.678-4.432a3.516,3.516,0,0,1-1.5-3.639h0a1.711,1.711,0,0,1,2.63-1.256l7.678,4.434a3.512,3.512,0,0,1,1.5,3.639h0A1.709,1.709,0,0,1-1282.348,276.485Z" transform="translate(1316.055 -219.942)" fill="#c9e6f8"/>
      <path id="Path_723" data-name="Path 723" d="M-1251.156,324.031l-20.506-11.839a3.513,3.513,0,0,1-1.5-3.639h0a1.71,1.71,0,0,1,2.628-1.256l20.507,11.839a3.515,3.515,0,0,1,1.5,3.641h0A1.709,1.709,0,0,1-1251.156,324.031Z" transform="translate(1326.595 -196.903)" fill="#c9e6f8"/>
      <path id="Path_724" data-name="Path 724" d="M-1288.105,287.93l-4.928-2.846a3.513,3.513,0,0,1-1.5-3.639h0a1.711,1.711,0,0,1,2.63-1.256l4.928,2.846a3.512,3.512,0,0,1,1.5,3.639h0A1.71,1.71,0,0,1-1288.105,287.93Z" transform="translate(1314.328 -212.462)" fill="#c9e6f8"/>
      <path id="Path_725" data-name="Path 725" d="M-1289.922,301.65l-6.12-3.534a3.514,3.514,0,0,1-1.5-3.639h0a1.711,1.711,0,0,1,2.63-1.256l6.12,3.534a3.516,3.516,0,0,1,1.5,3.639h0A1.711,1.711,0,0,1-1289.922,301.65Z" transform="translate(1312.602 -204.981)" fill="#c9e6f8"/>
      <path id="Path_726" data-name="Path 726" d="M-1271.144,312.491l-16.135-9.315a3.519,3.519,0,0,1-1.5-3.641h0a1.711,1.711,0,0,1,2.63-1.254l16.135,9.315a3.517,3.517,0,0,1,1.5,3.641h0A1.711,1.711,0,0,1-1271.144,312.491Z" transform="translate(1317.631 -202.077)" fill="#c9e6f8"/>
      <path id="Path_727" data-name="Path 727" d="M-1285.945,311.33l-11.6-6.7a3.514,3.514,0,0,1-1.5-3.639h0a1.71,1.71,0,0,1,2.629-1.256l11.6,6.7a3.517,3.517,0,0,1,1.5,3.641h0A1.709,1.709,0,0,1-1285.945,311.33Z" transform="translate(1311.739 -201.241)" fill="#c9e6f8"/>
      <path id="Path_728" data-name="Path 728" d="M-1244.74,327.768l-7.45-4.3a3.513,3.513,0,0,1-1.5-3.639h0a1.711,1.711,0,0,1,2.63-1.256l7.45,4.3a3.516,3.516,0,0,1,1.5,3.641h0A1.711,1.711,0,0,1-1244.74,327.768Z" transform="translate(1337.772 -190.431)" fill="#c9e6f8"/>
      <path id="Path_729" data-name="Path 729" d="M-1259.526,289.662l-20.506-11.839a3.516,3.516,0,0,1-1.5-3.639h0a1.711,1.711,0,0,1,2.63-1.256l20.506,11.839a3.516,3.516,0,0,1,1.5,3.641h0A1.71,1.71,0,0,1-1259.526,289.662Z" transform="translate(1321.791 -216.63)" fill="#c9e6f8"/>
      <path id="Path_730" data-name="Path 730" d="M-1252.781,286.171l-35.74-20.635a3.516,3.516,0,0,1-1.5-3.639h0a1.711,1.711,0,0,1,2.63-1.256l35.739,20.635a3.514,3.514,0,0,1,1.5,3.639v0A1.71,1.71,0,0,1-1252.781,286.171Z" transform="translate(1316.918 -223.682)" fill="#c9e6f8"/>
      <path id="Path_731" data-name="Path 731" d="M-1271.024,290.408l-20.506-11.839a3.513,3.513,0,0,1-1.5-3.639h0a1.711,1.711,0,0,1,2.63-1.256l20.506,11.839a3.517,3.517,0,0,1,1.5,3.639h0A1.711,1.711,0,0,1-1271.024,290.408Z" transform="translate(1315.192 -216.202)" fill="#c9e6f8"/>
      <path id="Path_732" data-name="Path 732" d="M-1254.4,292.618l-7.451-4.3a3.515,3.515,0,0,1-1.5-3.639h0a1.71,1.71,0,0,1,2.63-1.254l7.45,4.3a3.513,3.513,0,0,1,1.5,3.639h0A1.709,1.709,0,0,1-1254.4,292.618Z" transform="translate(1332.224 -210.606)" fill="#c9e6f8"/>
      <path id="Path_733" data-name="Path 733" d="M-1219.061,282.63l-7.451-4.3a3.515,3.515,0,0,1-1.5-3.639h0a1.711,1.711,0,0,1,2.63-1.256l7.451,4.3a3.515,3.515,0,0,1,1.5,3.641h0A1.709,1.709,0,0,1-1219.061,282.63Z" transform="translate(1352.509 -216.339)" fill="#c9e6f8"/>
      <path id="Path_734" data-name="Path 734" d="M-1269.887,305.832l-24.65-14.232a3.514,3.514,0,0,1-1.5-3.639h0a1.71,1.71,0,0,1,2.63-1.256l24.648,14.232a3.514,3.514,0,0,1,1.5,3.639h0A1.71,1.71,0,0,1-1269.887,305.832Z" transform="translate(1313.465 -208.721)" fill="#c9e6f8"/>
      <path id="Path_735" data-name="Path 735" d="M-1272.4,252.692l-18.121-10.462a3.514,3.514,0,0,1-1.5-3.639h0a1.71,1.71,0,0,1,2.628-1.256l18.123,10.462a3.519,3.519,0,0,1,1.5,3.641h0A1.71,1.71,0,0,1-1272.4,252.692Z" transform="translate(1315.771 -237.059)" fill="#c9e6f8"/>
      <path id="Path_736" data-name="Path 736" d="M-1284.572,319.506l-20.989-12.118a3.513,3.513,0,0,1-1.5-3.639h0a1.711,1.711,0,0,1,2.63-1.256l20.987,12.118a3.514,3.514,0,0,1,1.5,3.639h0A1.71,1.71,0,0,1-1284.572,319.506Z" transform="translate(1307.138 -199.66)" fill="#c9e6f8"/>
    </g>
    <g id="Group_201" data-name="Group 201" transform="translate(586.015 4239.599)">
      <path id="Path_737" data-name="Path 737" d="M-1279.749,360.2l-12.29-7.1a3.517,3.517,0,0,1-1.5-3.641h0a1.711,1.711,0,0,1,2.63-1.254l12.29,7.1a3.516,3.516,0,0,1,1.5,3.639h0A1.711,1.711,0,0,1-1279.749,360.2Z" transform="translate(1346.563 -331.031)" fill="#c9e6f8"/>
      <path id="Path_738" data-name="Path 738" d="M-1259.023,372.167l-18.121-10.464a3.515,3.515,0,0,1-1.5-3.639h0a1.711,1.711,0,0,1,2.63-1.256l18.121,10.464a3.513,3.513,0,0,1,1.5,3.639h0A1.711,1.711,0,0,1-1259.023,372.167Z" transform="translate(1355.112 -326.096)" fill="#c9e6f8"/>
      <path id="Path_739" data-name="Path 739" d="M-1293.36,396.647l-12.289-7.1a3.513,3.513,0,0,1-1.5-3.639h0a1.711,1.711,0,0,1,2.63-1.256l12.289,7.1a3.515,3.515,0,0,1,1.5,3.639h0A1.71,1.71,0,0,1-1293.36,396.647Z" transform="translate(1338.751 -310.112)" fill="#c9e6f8"/>
      <path id="Path_740" data-name="Path 740" d="M-1274.653,407.448l-18.123-10.462a3.516,3.516,0,0,1-1.5-3.641h0a1.709,1.709,0,0,1,2.629-1.254l18.123,10.462a3.517,3.517,0,0,1,1.5,3.639h0A1.711,1.711,0,0,1-1274.653,407.448Z" transform="translate(1346.141 -305.845)" fill="#c9e6f8"/>
      <path id="Path_741" data-name="Path 741" d="M-1304.464,353.314l-7.678-4.432a3.516,3.516,0,0,1-1.5-3.639h0a1.711,1.711,0,0,1,2.63-1.256l7.678,4.432a3.52,3.52,0,0,1,1.5,3.641h0A1.711,1.711,0,0,1-1304.464,353.314Z" transform="translate(1335.024 -333.455)" fill="#c9e6f8"/>
      <path id="Path_742" data-name="Path 742" d="M-1283.677,372.7l-23.457-13.542a3.516,3.516,0,0,1-1.5-3.641h0a1.71,1.71,0,0,1,2.63-1.255l23.457,13.542a3.517,3.517,0,0,1,1.5,3.641h0A1.71,1.71,0,0,1-1283.677,372.7Z" transform="translate(1337.899 -327.557)" fill="#c9e6f8"/>
      <path id="Path_743" data-name="Path 743" d="M-1302.464,376.622l-7.678-4.434a3.513,3.513,0,0,1-1.5-3.639h0a1.709,1.709,0,0,1,2.63-1.254l7.677,4.432a3.513,3.513,0,0,1,1.5,3.639h0A1.71,1.71,0,0,1-1302.464,376.622Z" transform="translate(1336.172 -320.077)" fill="#c9e6f8"/>
      <path id="Path_744" data-name="Path 744" d="M-1271.273,424.168l-20.507-11.839a3.515,3.515,0,0,1-1.5-3.641h0a1.709,1.709,0,0,1,2.629-1.254l20.506,11.839a3.513,3.513,0,0,1,1.5,3.639h0A1.71,1.71,0,0,1-1271.273,424.168Z" transform="translate(1346.712 -297.038)" fill="#c9e6f8"/>
      <path id="Path_745" data-name="Path 745" d="M-1308.222,388.066l-4.928-2.846a3.513,3.513,0,0,1-1.5-3.639h0a1.71,1.71,0,0,1,2.628-1.256l4.928,2.846a3.514,3.514,0,0,1,1.5,3.639h0A1.71,1.71,0,0,1-1308.222,388.066Z" transform="translate(1334.445 -312.598)" fill="#c9e6f8"/>
      <path id="Path_746" data-name="Path 746" d="M-1310.038,401.786l-6.121-3.534a3.512,3.512,0,0,1-1.5-3.639h0a1.71,1.71,0,0,1,2.629-1.256l6.121,3.534a3.515,3.515,0,0,1,1.5,3.641h0A1.71,1.71,0,0,1-1310.038,401.786Z" transform="translate(1332.719 -305.117)" fill="#c9e6f8"/>
      <path id="Path_747" data-name="Path 747" d="M-1291.26,412.629l-16.135-9.316a3.514,3.514,0,0,1-1.5-3.639h0a1.711,1.711,0,0,1,2.63-1.256l16.135,9.316a3.515,3.515,0,0,1,1.5,3.639h0A1.711,1.711,0,0,1-1291.26,412.629Z" transform="translate(1337.749 -302.213)" fill="#c9e6f8"/>
      <path id="Path_748" data-name="Path 748" d="M-1306.062,411.467l-11.6-6.7a3.512,3.512,0,0,1-1.5-3.639h0a1.71,1.71,0,0,1,2.628-1.256l11.6,6.7a3.516,3.516,0,0,1,1.5,3.639h0A1.711,1.711,0,0,1-1306.062,411.467Z" transform="translate(1331.855 -301.377)" fill="#c9e6f8"/>
      <path id="Path_749" data-name="Path 749" d="M-1264.857,427.9l-7.449-4.3a3.513,3.513,0,0,1-1.5-3.639h0a1.708,1.708,0,0,1,2.628-1.254l7.451,4.3a3.516,3.516,0,0,1,1.5,3.639h0A1.71,1.71,0,0,1-1264.857,427.9Z" transform="translate(1357.889 -290.567)" fill="#c9e6f8"/>
      <path id="Path_750" data-name="Path 750" d="M-1279.642,389.8l-20.506-11.839a3.516,3.516,0,0,1-1.5-3.641h0a1.711,1.711,0,0,1,2.63-1.254l20.506,11.839a3.516,3.516,0,0,1,1.5,3.639h0A1.711,1.711,0,0,1-1279.642,389.8Z" transform="translate(1341.908 -316.765)" fill="#c9e6f8"/>
      <path id="Path_751" data-name="Path 751" d="M-1272.9,386.307l-35.739-20.633a3.517,3.517,0,0,1-1.5-3.641h0a1.71,1.71,0,0,1,2.63-1.254l35.739,20.635a3.513,3.513,0,0,1,1.5,3.639h0A1.709,1.709,0,0,1-1272.9,386.307Z" transform="translate(1337.035 -323.817)" fill="#c9e6f8"/>
      <path id="Path_752" data-name="Path 752" d="M-1291.141,390.544l-20.506-11.839a3.513,3.513,0,0,1-1.5-3.639h0a1.709,1.709,0,0,1,2.63-1.254l20.506,11.838a3.516,3.516,0,0,1,1.5,3.641h0A1.708,1.708,0,0,1-1291.141,390.544Z" transform="translate(1335.309 -316.337)" fill="#c9e6f8"/>
      <path id="Path_753" data-name="Path 753" d="M-1274.523,392.755l-7.45-4.3a3.514,3.514,0,0,1-1.5-3.639h0a1.711,1.711,0,0,1,2.63-1.256l7.45,4.3a3.513,3.513,0,0,1,1.5,3.639h0A1.711,1.711,0,0,1-1274.523,392.755Z" transform="translate(1352.341 -310.742)" fill="#c9e6f8"/>
      <path id="Path_754" data-name="Path 754" d="M-1290.006,405.968l-24.648-14.232a3.511,3.511,0,0,1-1.5-3.639h0a1.71,1.71,0,0,1,2.629-1.256l24.65,14.232a3.516,3.516,0,0,1,1.5,3.641h0A1.711,1.711,0,0,1-1290.006,405.968Z" transform="translate(1333.582 -308.858)" fill="#c9e6f8"/>
      <path id="Path_755" data-name="Path 755" d="M-1292.516,352.829l-18.123-10.464a3.512,3.512,0,0,1-1.5-3.639h0a1.71,1.71,0,0,1,2.629-1.256l18.123,10.464a3.511,3.511,0,0,1,1.5,3.639h0A1.71,1.71,0,0,1-1292.516,352.829Z" transform="translate(1335.887 -337.195)" fill="#c9e6f8"/>
      <path id="Path_756" data-name="Path 756" d="M-1304.691,419.642l-20.988-12.118a3.513,3.513,0,0,1-1.5-3.639h0a1.709,1.709,0,0,1,2.629-1.254l20.989,12.118a3.513,3.513,0,0,1,1.5,3.639h0A1.71,1.71,0,0,1-1304.691,419.642Z" transform="translate(1327.255 -299.795)" fill="#c9e6f8"/>
    </g>
    <path id="Path_757" data-name="Path 757" d="M-1204.1,411.386l16.281-68.123-28.6-20.531a253.394,253.394,0,0,0-44.71-25.813l-30.285-13.464-16.281,68.123s-13.55,49.015,33.475,106.569C-1214.418,462.266-1204.1,411.386-1204.1,411.386Z" transform="translate(1923.46 3871.559)" opacity="0.87" fill="url(#linear-gradient-2)"/>
    <g id="Group_202" data-name="Group 202" transform="translate(561 4087.295)">
      <path id="Path_758" data-name="Path 758" d="M-1226.454,286.61a297.888,297.888,0,0,0-52.568-30.349l-35.606-15.829-11.41,4.445s5.009,2.677,9.175,4.911l-16.906,70.739s-15.933,57.629,39.357,125.3a98.381,98.381,0,0,0,28.006-1.805c-.167.664-.28,1.119-.28,1.119l10.267-4.018q1.433-.524,2.8-1.1l.217-.085-.014,0c34.394-14.41,41.438-49.089,41.438-49.089l19.14-80.095Z" transform="translate(1347.307 -240.431)" fill="#da6317"/>
      <path id="Path_759" data-name="Path 759" d="M-1282.618,256.26l-35.606-15.829-11.41,4.445s5.009,2.677,9.175,4.911l-6.135,25.668,63.474,41.271,55.283-1.533,11.408-4.443-33.62-24.14A297.888,297.888,0,0,0-1282.618,256.26Z" transform="translate(1350.904 -240.431)" fill="#da6317"/>
      <path id="Path_760" data-name="Path 760" d="M-1265.833,275.2l11.477-4.384a285.513,285.513,0,0,0-28.262-14.554l-35.606-15.829-11.41,4.445s5.009,2.677,9.175,4.911l-.364,1.516C-1298.614,261.034-1265.833,275.2-1265.833,275.2Z" transform="translate(1350.904 -240.431)" fill="#e08d12"/>
      <path id="Path_761" data-name="Path 761" d="M-1279.761,256.5l-21.374,8.008,17.9,10.336,21.216-7.949Q-1270.8,261.345-1279.761,256.5Z" transform="translate(1367.261 -231.21)" fill="#da6317"/>
      <path id="Path_762" data-name="Path 762" d="M-1219.223,393.667l19.141-80.095-33.622-24.138a297.682,297.682,0,0,0-52.566-30.349l-35.608-15.829-19.139,80.095s-15.933,57.628,39.355,125.295C-1231.359,453.489-1219.223,393.667-1219.223,393.667Z" transform="translate(1343.147 -238.81)" fill="#e08d12"/>
      <path id="Path_763" data-name="Path 763" d="M-1300.461,435.372c-24.98-31.716-33.323-60.59-35.886-79.465-2.865-21.1.65-34.648.675-34.744l16.724-69.954,25.792,11.466a289.3,289.3,0,0,1,50.987,29.444l28.753,20.643-17.748,74.265-.066.3a66.656,66.656,0,0,1-13,25.4C-1257.295,428.594-1276.209,436.2-1300.461,435.372Z" transform="translate(1346.406 -234.245)" fill="#ffba19"/>
    </g>
    <g id="Group_207" data-name="Group 207" transform="translate(1638.344 3745.137)">
      <g id="Group_205" data-name="Group 205" transform="translate(-1185.348 336.751)">
        <path id="Path_764" data-name="Path 764" d="M-1167.651,481.548c.4,1,7.283,9.378,14.166,11.472a15.836,15.836,0,0,0,6.324.873,2.085,2.085,0,0,0,1.7-2.776,26.156,26.156,0,0,0-13.207-14.557C-1170.345,470.775-1167.651,481.548-1167.651,481.548Z" transform="translate(1201.16 -263.991)" fill="#1e5aa7"/>
        <path id="Path_765" data-name="Path 765" d="M-1166.042,481.449a57,57,0,0,1,3.391,11.173c.487,3.1-1.216,7.134-2.619,9.807a2.864,2.864,0,0,1-4.463.773,16.556,16.556,0,0,1-5.587-10.679c-.8-8.58,0-10.076,0-10.076Z" transform="translate(1197.258 -260.672)" fill="#1e5aa7"/>
        <path id="Path_766" data-name="Path 766" d="M-1180.165,415.292a163.243,163.243,0,0,0,0,22.793c.9,11.971,4.113,67.957,4.711,81.424,0,0-.3,4.078,7.594,3.181s7.257-5.425,7.257-5.425,11.086-.15,11.436-6.685,11.354-78.028,11.354-103.733Z" transform="translate(1194.798 -298.21)" fill="#f5730e"/>
        <g id="Group_204" data-name="Group 204">
          <path id="Path_767" data-name="Path 767" d="M-1154.662,375.3l6.393,39.1,5.817-.1-.535-35.831Z" transform="translate(1207.831 -314.083)" fill="#f9b2a0"/>
          <path id="Path_768" data-name="Path 768" d="M-1156.445,352.268s8.628-.224,11.631,12.245,5.353,28.082,2.74,29.38c-7.84,3.895-12.8-.663-12.8-.663Z" transform="translate(1206.934 -325.673)" fill="#e3e2e2"/>
          <path id="Path_769" data-name="Path 769" d="M-1139.515,352.8a7.067,7.067,0,0,0-4.657-.255c-7.351,2.11-34.988,10.222-39.542,14.115-5.263,4.5,7.892,29.775,7.7,38.062s-1.124,18.058-1.856,27.068-1.723,13.948,5.646,17.778,19.95,4.007,29.368-3.169,7.71-12.087,7.317-17.3-3.6-27.743-3.321-34.139a24.214,24.214,0,0,0,5.777-6.637c2.458-4.192-1.883-11.9-3.687-16.908s1.018-10.739.46-14.827A4.641,4.641,0,0,0-1139.515,352.8Z" transform="translate(1192.587 -325.674)" fill="#e3e2e2"/>
          <path id="Path_770" data-name="Path 770" d="M-1153.635,360.7c.583,4.553-3.593,8.839-9.327,9.572s-10.856-2.36-11.439-6.912,3.593-8.839,9.327-9.574S-1154.219,356.151-1153.635,360.7Z" transform="translate(1197.871 -324.961)" fill="#fff"/>
          <path id="Path_771" data-name="Path 771" d="M-1157.593,360.284c.416,3.254-2.569,6.318-6.667,6.842s-7.759-1.687-8.177-4.941,2.569-6.316,6.668-6.841S-1158.011,357.031-1157.593,360.284Z" transform="translate(1198.868 -324.164)" fill="#f9b2a0"/>
          <path id="Path_772" data-name="Path 772" d="M-1162.689,352.374s-4.989-4.1-5.969-2.025-1.787,11-1.787,11l9.907,2.662-1.5-9.036S-1160.058,353.289-1162.689,352.374Z" transform="translate(1199.89 -326.935)" fill="#f9b2a0"/>
          <path id="Path_773" data-name="Path 773" d="M-1145.089,350.241a14.793,14.793,0,0,1-15.639,13.9,14.793,14.793,0,0,1-13.9-15.639,14.791,14.791,0,0,1,15.639-13.9A14.791,14.791,0,0,1-1145.089,350.241Z" transform="translate(1197.774 -334.575)" fill="#f9b2a0"/>
          <path id="Path_774" data-name="Path 774" d="M-1169.632,352.108c-.087.466-.171.965-.251,1.476,1,5.147,8.7,7.4,8.7,7.4l-1.136-6.836s.933-.792.669-1.586C-1164.7,351.6-1168.535,350.749-1169.632,352.108Z" transform="translate(1200.172 -326.11)" fill="#e4887f"/>
          <path id="Path_775" data-name="Path 775" d="M-1145.089,350.241a14.793,14.793,0,0,1-15.639,13.9,14.793,14.793,0,0,1-13.9-15.639,14.791,14.791,0,0,1,15.639-13.9A14.791,14.791,0,0,1-1145.089,350.241Z" transform="translate(1197.774 -334.575)" fill="#f9b2a0"/>
          <path id="Path_776" data-name="Path 776" d="M-1189.056,386.074l1.656,39.587,5.787.6,3.767-35.637Z" transform="translate(1190.525 -308.662)" fill="#f9b2a0"/>
          <path id="Path_777" data-name="Path 777" d="M-1173.954,392.954c-1.915-8.452-5.7-27.129-5.7-27.129l-1.617,18.576c1.865,5.509,3.469,10.566,3.4,13.5-.111,4.864-.481,10.241-.914,15.674v.017S-1172.039,401.408-1173.954,392.954Z" transform="translate(1194.443 -318.851)" fill="#c1c1c0"/>
          <path id="Path_778" data-name="Path 778" d="M-1180.056,361.3s-4.627,1.769-7.247,15.983-4.577,28.454.092,30.289,8.571,3.215,9.943-.588,2.223-22.121,2.4-28.709S-1174.448,362.6-1180.056,361.3Z" transform="translate(1190.033 -321.128)" fill="#e3e2e2"/>
        </g>
        <path id="Path_779" data-name="Path 779" d="M-1167.285,509.544a22.591,22.591,0,0,0,3.169-.329h0l2.171-87.025Z" transform="translate(1201.48 -290.49)" fill="#ae541b"/>
      </g>
      <g id="Group_206" data-name="Group 206" transform="translate(-1199.344 452.324)">
        <path id="Path_780" data-name="Path 780" d="M-1159.744,467.934l-3.08-4.02-32.383-18.751a4.5,4.5,0,0,1-1.878-3.6l.029-26.513-1.863-2.431,1.75-1.013v0a1.184,1.184,0,0,1,1.27.074l36.7,21.249a4.5,4.5,0,0,1,1.877,3.6l-.031,28.875a1.635,1.635,0,0,1-.685,1.539h0Z" transform="translate(1199.558 -411.461)" fill="#a21f05"/>
        <path id="Path_781" data-name="Path 781" d="M-1182.138,452.731l-2.3-1.332-12.63-21.937.014-14.406-1.863-2.431,1.75-1.013v0a1.184,1.184,0,0,1,1.27.074l36.7,21.249a3.794,3.794,0,0,1,1.384,1.616Z" transform="translate(1199.558 -411.461)" fill="#bf4128"/>
        <path id="Path_782" data-name="Path 782" d="M-1198.091,413.7l-.827-1.078,1.75-1.013v0a1.184,1.184,0,0,1,1.27.074l.646.374Z" transform="translate(1199.558 -411.461)" fill="#bf4128"/>
        <path id="Path_783" data-name="Path 783" d="M-1171.009,425.9a4.7,4.7,0,0,1,1.533,3.091l-3.587,2.071-1.718-2.985Z" transform="translate(1211.704 -404.194)" fill="#a21f05"/>
        <path id="Path_784" data-name="Path 784" d="M-1160.729,433.609l-36.7-21.249c-1.037-.6-1.88.035-1.882,1.421l-.032,28.873a4.5,4.5,0,0,0,1.878,3.6l36.7,21.249c1.039.6,1.881-.035,1.884-1.421l.03-28.873A4.508,4.508,0,0,0-1160.729,433.609Z" transform="translate(1199.344 -411.123)" fill="#c12101"/>
      </g>
      <path id="Path_785" data-name="Path 785" d="M-1187.48,413.8s-1.53,9.242-1.3,12.2,1.814,7.842,3.017,7.738.039-11.9,2.151-10.725,2.333,3.19,3.289,2.479-1.667-10.8-.968-15.17S-1187.48,413.8-1187.48,413.8Z" transform="translate(5.304 39.621)" fill="#f9b2a0"/>
      <path id="Path_786" data-name="Path 786" d="M-1144.073,402.855s1.53,9.24,1.3,12.2-1.814,7.842-3.017,7.738-.039-11.9-2.151-10.727-2.333,3.191-3.289,2.479,1.667-10.8.968-15.169S-1144.073,402.855-1144.073,402.855Z" transform="translate(24.103 34.116)" fill="#f9b2a0"/>
      <path id="Path_787" data-name="Path 787" d="M-1157.459,347.869c7.42,2.637,8.864,1.028,8.937.941.068-.446.122-.9.149-1.36a14.789,14.789,0,0,0-.493-4.726l-19.253-2.6S-1165.081,345.162-1157.459,347.869Z" transform="translate(15.711 4.967)" fill="#e4887f"/>
      <path id="Path_788" data-name="Path 788" d="M-1143.289,337.68c-1.75-1.5-8.06-8.912-19.365-7.163-7.067,1.093-13.022,5.913-14.343,16.908a25.274,25.274,0,0,0,6.838,20.1,5.9,5.9,0,0,0,.8-.406c2.832-1.864,3.137-2.888,3.137-2.9l.625-5.61a1.567,1.567,0,0,0-1.41-1.556,2.819,2.819,0,0,1-2.072-1.263c-1.625-2.124-.875-5.434,2.374-5.559a2.491,2.491,0,0,0,2.593-1.846,1.329,1.329,0,0,1,1.733-.9c3.695,1.338,12.8,4.221,18.659,2.56C-1136.223,347.922-1141.541,339.178-1143.289,337.68Z" transform="translate(11.16 0)" fill="url(#linear-gradient-5)"/>
      <path id="Path_789" data-name="Path 789" d="M-1181.514,420.515l-3.856-2.208,1.448,2.364,1.949.72Z" transform="translate(7.031 44.308)" fill="#a21f05"/>
    </g>
  </g>
</svg>
